<?xml version="1.0" standalone="no"?>
<!DOCTYPE svg PUBLIC "-//W3C//DTD SVG 20010904//EN"
 "http://www.w3.org/TR/2001/REC-SVG-20010904/DTD/svg10.dtd">
<svg version="1.0" xmlns="http://www.w3.org/2000/svg"
 width="769.000000pt" height="769.000000pt" viewBox="0 0 769.000000 769.000000"
 preserveAspectRatio="xMidYMid meet">
<metadata>
Created by potrace 1.14, written by Peter Selinger 2001-2017
</metadata>
<g transform="translate(0.000000,769.000000) scale(0.100000,-0.100000)"
fill="#000000" stroke="none">
<path d="M560 4693 c-54 -9 -150 -45 -196 -74 -42 -27 -135 -114 -170 -160 -5
-8 -22 -39 -36 -69 -44 -94 -48 -116 -53 -252 -4 -104 -3 -108 21 -127 20 -15
24 -28 24 -67 -1 -47 -2 -50 -43 -70 -115 -56 -142 -219 -50 -310 19 -20 49
-40 64 -46 27 -9 29 -14 29 -63 0 -44 -3 -55 -19 -60 -27 -8 -31 -27 -27 -125
5 -101 21 -142 76 -197 74 -74 65 -73 677 -73 587 1 575 0 648 56 18 13 45 47
60 76 24 43 29 66 31 134 3 98 -2 121 -27 129 -15 5 -19 16 -19 58 0 51 1 52
42 72 25 12 55 39 73 64 26 37 30 51 30 111 0 60 -4 74 -30 111 -17 24 -48 52
-72 63 -41 20 -42 23 -43 70 0 40 4 52 25 68 25 19 25 22 21 132 -3 86 -10
130 -29 183 -62 179 -211 315 -393 358 -44 11 -127 14 -324 13 -146 0 -276 -3
-290 -5z m582 -104 c112 -24 217 -96 279 -191 48 -75 67 -134 73 -225 l5 -73
-649 0 -648 0 3 64 c10 208 155 385 345 422 13 3 27 7 29 10 10 9 513 3 563
-7z m308 -639 l0 -50 -108 0 c-73 0 -114 -4 -126 -13 -16 -12 -18 -36 -18
-286 l-1 -272 -23 -16 c-22 -14 -26 -14 -49 1 l-25 16 0 270 c0 231 -2 271
-16 284 -24 24 -339 23 -366 -1 -10 -9 -18 -24 -18 -33 0 -9 -9 -25 -20 -35
-28 -26 -67 -13 -75 25 -13 57 -21 60 -196 60 l-159 0 0 50 0 50 600 0 600 0
0 -50z m-929 -172 c46 -87 161 -103 234 -33 19 19 35 39 35 45 0 6 40 10 105
10 l105 0 0 -100 0 -100 -406 0 c-346 0 -411 2 -439 15 -33 16 -55 50 -55 86
0 29 29 75 54 88 12 5 96 10 188 10 164 1 168 1 179 -21z m1022 10 c50 -26 68
-76 48 -126 -21 -50 -56 -62 -180 -62 l-111 0 0 100 0 100 111 0 c64 0 119 -5
132 -12z m-543 -338 l0 -49 -374 0 -374 0 0 49 -1 50 375 0 374 0 0 -50z m450
0 l0 -50 -75 0 -75 0 0 50 0 50 75 0 75 0 0 -50z m-422 -184 c57 -84 195 -81
246 5 17 29 17 29 121 29 l104 0 -3 -42 c-6 -76 -33 -119 -89 -143 -31 -13
-116 -15 -565 -15 l-528 0 -42 27 c-45 29 -62 63 -68 131 l-3 42 402 0 402 0
23 -34z"/>
<path d="M620 4482 c-20 -16 -21 -23 -13 -48 17 -53 93 -42 93 14 0 24 -24 51
-46 52 -7 0 -22 -8 -34 -18z"/>
<path d="M1022 4484 c-44 -30 -20 -89 35 -82 38 4 55 49 28 78 -22 24 -33 25
-63 4z"/>
<path d="M416 4381 c-24 -26 -12 -69 22 -78 32 -8 56 7 60 39 6 50 -49 76 -82
39z"/>
<path d="M815 4380 c-27 -30 -10 -74 30 -78 47 -6 73 48 39 82 -21 22 -47 20
-69 -4z"/>
<path d="M1215 4384 c-19 -20 -16 -63 6 -77 23 -14 67 0 74 24 8 26 -19 69
-45 69 -10 0 -26 -7 -35 -16z"/>
<path d="M3917 4166 c-61 -22 -101 -69 -114 -135 -3 -14 -5 -143 -6 -287 0
-304 5 -337 65 -388 45 -39 69 -45 154 -42 77 3 125 32 156 95 19 40 22 62 22
210 l1 166 -92 3 -91 3 -4 -61 -3 -60 33 0 32 0 0 -89 c0 -49 -4 -101 -9 -114
-18 -46 -99 -46 -120 -1 -15 34 -15 524 0 558 12 26 55 42 87 32 28 -9 42 -49
42 -117 l0 -60 62 3 63 3 0 65 c0 117 -37 185 -119 217 -42 16 -113 15 -159
-1z"/>
<path d="M6017 4166 c-62 -23 -101 -69 -114 -135 -7 -34 -7 -538 0 -572 20
-102 107 -158 226 -146 66 7 121 42 147 94 17 35 19 63 19 338 0 339 -3 353
-77 402 -47 32 -142 40 -201 19z m129 -127 c18 -20 19 -40 19 -294 0 -254 -1
-274 -19 -294 -19 -21 -61 -28 -82 -13 -30 20 -34 55 -34 307 0 252 4 287 34
307 21 15 63 8 82 -13z"/>
<path d="M6967 4166 c-83 -30 -111 -79 -112 -196 0 -110 18 -146 135 -265 93
-95 120 -136 120 -182 0 -52 -11 -72 -46 -83 -59 -20 -94 15 -94 92 l0 44 -57
0 c-32 0 -61 -4 -64 -9 -12 -16 3 -122 23 -164 53 -112 252 -125 331 -21 31
40 46 123 35 188 -12 71 -45 123 -134 214 -95 97 -116 131 -116 194 0 36 5 51
22 64 49 40 102 8 104 -62 l1 -40 62 0 63 0 0 43 c-1 50 -21 110 -47 139 -46
52 -148 72 -226 44z"/>
<path d="M2350 4106 c-1 -94 -1 -749 0 -768 0 -16 13 -18 123 -18 146 0 191
11 234 56 39 41 48 80 47 199 -1 98 -15 138 -59 173 l-26 21 30 30 c38 39 45
65 45 166 0 96 -19 144 -73 177 -33 21 -49 23 -178 24 l-143 1 0 -61z m240
-76 c22 -22 26 -49 21 -147 -2 -36 -39 -63 -88 -63 l-43 0 0 115 0 115 45 0
c32 0 51 -6 65 -20z m14 -356 c29 -49 23 -197 -9 -220 -10 -8 -40 -14 -67 -14
l-48 0 0 131 0 131 56 -4 c42 -4 59 -10 68 -24z"/>
<path d="M2832 3802 l3 -368 28 -42 c34 -52 85 -78 159 -81 63 -3 130 21 161
57 43 48 46 80 47 450 l0 353 -62 -3 -63 -3 0 -347 c0 -381 1 -371 -61 -384
-21 -4 -37 0 -54 14 l-25 20 -2 344 c-1 188 -2 346 -2 351 -1 4 -30 7 -66 7
l-66 0 3 -368z"/>
<path d="M3319 4168 c-1 -4 -1 -808 0 -830 1 -15 11 -18 66 -18 l65 0 0 170 0
170 43 0 c81 -1 93 -27 95 -203 1 -65 4 -123 7 -128 4 -5 34 -9 68 -9 l62 0
-3 143 c-3 155 -17 214 -57 245 l-24 19 29 28 c38 36 54 113 47 222 -6 100
-26 140 -85 169 -36 19 -61 22 -177 23 -74 1 -135 1 -136 -1z m242 -137 c21
-16 23 -28 24 -97 2 -127 -15 -154 -94 -154 l-41 0 0 135 0 135 44 0 c28 0 52
-7 67 -19z"/>
<path d="M4279 4158 c-1 -16 -1 -820 0 -830 1 -5 82 -8 181 -8 l180 0 0 60 0
60 -115 0 -115 0 0 125 0 125 90 0 c65 0 90 3 91 13 0 6 2 33 2 60 l2 47 -92
0 -93 0 0 121 0 120 93 -1 c152 -2 137 -9 137 60 l0 60 -180 0 c-137 0 -180
-3 -181 -12z"/>
<path d="M4729 4159 c0 -8 -1 -200 -2 -426 l-2 -413 68 0 67 0 0 170 0 170 43
0 c49 0 86 -26 89 -63 2 -28 6 -144 7 -219 l1 -58 68 0 67 0 -3 127 c-4 185
-8 207 -46 248 -33 34 -33 35 -13 52 42 38 57 93 54 204 -3 119 -19 159 -77
194 -30 17 -57 20 -177 24 -116 3 -143 1 -144 -10z m248 -131 c12 -13 17 -40
18 -96 3 -124 -15 -152 -94 -152 l-41 0 0 135 0 136 50 -2 c34 -2 56 -9 67
-21z"/>
<path d="M5399 4168 c-1 -4 -1 -808 0 -830 1 -15 11 -18 66 -18 l65 0 0 180 0
180 75 0 75 0 0 -180 0 -180 68 0 67 0 0 423 0 422 -67 3 -68 3 0 -186 0 -185
-75 0 -75 0 0 185 0 185 -65 0 c-36 0 -65 -1 -66 -2z"/>
<path d="M6382 3803 c3 -350 4 -370 24 -403 40 -68 122 -100 218 -86 59 9 106
42 131 91 19 37 20 63 23 403 l3 363 -63 -3 -63 -3 0 -349 -1 -348 -23 -19
c-33 -27 -75 -24 -99 6 -18 23 -19 43 -19 367 l0 343 -67 3 -67 3 3 -368z"/>
<path d="M7329 4133 c0 -21 -1 -212 -2 -425 l-2 -388 183 0 182 0 0 60 0 60
-115 0 -115 0 0 125 0 124 92 3 92 3 0 55 -1 55 -91 3 -92 3 0 119 0 120 115
0 115 0 0 60 0 60 -180 0 -180 0 -1 -37z"/>
</g>
</svg>
